<svg xmlns="http://www.w3.org/2000/svg" viewBox="0 0 566.93 101.89" preserveAspectRatio="none"><g fill="#fff" fill-opacity=".22"><path  d="M147.66,11.29c-5.01.53-.63,0-6.11.76l-9.41,2.45c-9.69,2.36-19.24,5.21-28.41,8.26-.39.19-.77.39-1.15.58-20.95,10.56-54.44,25.72-65.75,45.04,0,0-1,1.57-1,2.37s1,.07,1,.07c19.56-13.04,37.68-25.7,59.19-37.2,19.71-10.54,44.46-20.24,69.8-23.8-5.75.31-11.82.79-18.16,1.46Z"/><path  d="M422.82,84.8l5.94-2c10.85-4.16,21.52-9.15,31.72-14.41.8-.57,1.6-1.14,2.4-1.73,18.93-13.78,49.37-34.05,58.26-55.73,0,0,.3-.68-.59-.88-.68-.16-2.25.88-2.25.88-16.37,15.31-31.76,30.07-50.14,44.15-19.23,14.74-44.16,29.22-70.03,35.63,2.4-.37,4.83-.79,7.3-1.27,7.41-1.4,9.06-2.32,17.39-4.65Z"/><path  d="M429.15,83.82c3.13-.88,6.31-1.81,9.55-2.81,13.51-4.16,26.47-8.91,38.27-13.5,3.34-1.86,6.63-3.74,9.88-5.61,20.4-11.77,42.68-23.01,62.98-35.49,0,0,.76-.41.76-1.28,0-.78-.76-.97-.76-.97-18.74,2.18-42.97,19.06-57.21,27.5-19,11.25-40.77,23.45-63.47,32.16Z"/><path  d="M131.83,13.24c-5.47.76-11.15,1.64-17,2.63-9.74,1.65-19.3,3.48-28.23,5.31-3.19,1.17-6.35,2.35-9.46,3.53-22.02,8.33-45.87,15.95-67.88,24.92,0,0-2,.46-2,1.22,0,1.32,2,1.34,2,1.34,19.63-.14,45.63-12.53,60.94-18.52,18.7-7.33,39.81-15.1,61.64-20.42Z"/></g></svg>
